<?xml version="1.0" encoding="utf-8"?>
<!-- Generator: Adobe Illustrator 16.0.0, SVG Export Plug-In . SVG Version: 6.00 Build 0)  -->
<!DOCTYPE svg PUBLIC "-//W3C//DTD SVG 1.1//EN" "http://www.w3.org/Graphics/SVG/1.1/DTD/svg11.dtd">
<svg version="1.1" id="圖層_1" xmlns="http://www.w3.org/2000/svg" xmlns:xlink="http://www.w3.org/1999/xlink" x="0px" y="0px"
	 width="960px" height="560px" viewBox="0 0 960 560" enable-background="new 0 0 960 560" xml:space="preserve">
<polygon fill="none" stroke="#FF3B3F" stroke-width="6" stroke-miterlimit="10" points="236.688,192.441 125.949,261.868 
	14.338,191.893 125.077,122.466 "/>
<polyline fill="none" stroke="#FF3B3F" stroke-width="6" stroke-miterlimit="10" points="241.735,390.365 123.917,461.937 
	8.981,390.056 "/>
<line fill="none" stroke="#FF3B3F" stroke-width="6" stroke-miterlimit="10" x1="240.021" y1="192.493" x2="240.021" y2="394.031"/>
<line fill="none" stroke="#FF3B3F" stroke-width="6" stroke-miterlimit="10" x1="11.302" y1="191.167" x2="11.302" y2="392.041"/>
<line fill="none" stroke="#FF3B3F" stroke-width="6" stroke-miterlimit="10" x1="125.993" y1="261.441" x2="125.993" y2="460.326"/>
<text transform="matrix(0.5523 0.3577 -0.0012 1 30.0298 378.8372)" fill="none" font-family="'AdobeMingStd-Light-B5pc-H'" font-size="201.7667">B</text>
<g>
	<g>
		<path fill="#FF3B3F" d="M43.558,257.75c0.003-3.026,0.013-10.693-6.116-14.663l-4.457-2.887l0.008-7.062l35.992,23.311
			c23.178,15.011,27.276,38.06,27.261,50.772c-0.023,19.571-8.726,23.628-18.094,23.619l3.342,3.375
			c11.027,11.18,18.701,28.063,18.677,47.233c-0.041,34.703-18.548,30.592-33.703,20.777l-33.651-21.795l0.009-7.062l4.568,2.959
			c3.566,2.311,6.021,1.273,6.029-6.192L43.558,257.75z M49.174,316.917l-0.068,56.899c-0.01,7.667,1.324,10.955,6.116,14.058
			l11.255,7.289c21.841,14.146,27.992-1.053,28.012-17.396c0.009-8.071-1.431-15.466-4.434-22.256
			c-5.56-13.697-18.929-24.376-23.052-27.046L49.174,316.917z M54.935,254.418c-5.125-3.32-5.689,2.171-5.694,7.014l-0.058,48.424
			l13.594,8.804c11.589,7.507,27.756,9.899,27.787-15.119c0.015-12.913-5.095-29.349-21.587-40.029L54.935,254.418z"/>
	</g>
</g>
<g>
	<path fill="#FF3B3F" d="M161.573,287.576c-0.083-5.468-1.345-8.595-5.079-6.427l-7.468,4.335l-0.085-5.649l68.42-39.722
		l8.466,29.646l-3.131,1.818c-5.926-14.208-11.394-22.248-23.077-15.464l-26.501,15.385c-3.975,2.308-5.603,7.115-5.521,12.582
		l0.719,47.564l20.718-12.029c9.756-5.663,10.999-11.902,10.746-28.667l3.011-1.747l0.757,50.115l-3.011,1.749
		c-0.284-18.771-2.263-21.116-11.418-15.801l-20.718,12.029l0.773,51.21c0.092,6.013,3.252,6.199,5.662,4.801l7.228-4.195
		l0.086,5.648l-31.199,18.112l-0.085-5.649l7.709-4.476c2.771-1.608,4.66-5.278,4.577-10.745L161.573,287.576z"/>
</g>
<g>
	<path fill="#FF3B3F" d="M273.483,373.698V210.589h42.882c12.816,0,23.013,3.451,30.595,10.352
		c7.583,6.901,11.374,16.036,11.374,27.412c0,9.477-2.52,17.687-7.56,24.625c-5.044,6.938-12.08,11.849-21.104,14.729v0.454
		c11.296,1.063,20.208,5.102,26.731,12.115c6.522,7.015,9.786,15.945,9.786,26.786c0,13.727-4.437,24.932-13.314,33.611
		c-8.869,8.683-20.738,13.023-35.599,13.023H273.483z M284.742,220.941v63.127h22.751c11.828,0,21.311-3.031,28.434-9.099
		c7.126-6.065,10.697-14.292,10.697-24.683c0-19.564-11.571-29.346-34.695-29.346H284.742z M284.742,294.306v69.154H315
		c12.817,0,22.614-3.074,29.403-9.212c6.785-6.144,10.18-14.861,10.18-26.163c0-22.519-15.282-33.778-45.839-33.778L284.742,294.306
		L284.742,294.306z"/>
	<path fill="#FF3B3F" d="M511.318,308.523c0,45.349-19.334,68.021-58.005,68.021c-36.78,0-55.167-21.838-55.167-65.52V210.59h11.145
		v98.845c0,37.837,15.393,56.757,46.182,56.757c29.8,0,44.703-18.387,44.703-55.166V210.592h11.143V308.523z"/>
	<path fill="#FF3B3F" d="M598.225,311.708v61.989h-11.147v-61.765l-49.935-101.344h12.625l37.994,78.597
		c1.365,2.729,3.068,6.75,5.119,12.059h0.455c1.062-2.808,2.914-6.749,5.571-11.83l39.81-78.824h12.172L598.225,311.708z"/>
	<path fill="#FF3B3F" d="M688.197,220.941v66.54h60.281v10.235h-60.281v75.981h-11.263V210.589h76.212v10.352H688.197
		L688.197,220.941z"/>
	<path fill="#FF3B3F" d="M785.218,373.698V210.589h11.263v163.108H785.218z"/>
	<path fill="#FF3B3F" d="M956.288,362.325c-16.833,9.48-34.161,14.219-51.979,14.219c-22.221,0-40.193-7.546-53.915-22.639
		c-13.727-15.091-20.59-34.881-20.59-59.374c0-24.72,7.397-45.345,22.181-61.877c14.789-16.529,34.541-24.795,59.26-24.795
		c14.336,0,28.247,2.881,41.747,8.645v12.284c-14.786-7.128-29.231-10.692-43.334-10.692c-20.552,0-37.063,7.016-49.537,21.043
		c-12.475,14.027-18.708,31.925-18.708,53.686c0,22.901,5.854,40.851,17.57,53.857c11.717,13.004,27.503,19.507,47.372,19.507
		c14.71,0,27.6-3.185,38.677-9.554v-53.801h-38.446v-10.237h49.704L956.288,362.325L956.288,362.325z"/>
</g>
</svg>
