<?xml version="1.0" encoding="utf-8"?>
<!-- Generator: Adobe Illustrator 16.0.0, SVG Export Plug-In . SVG Version: 6.00 Build 0)  -->
<!DOCTYPE svg PUBLIC "-//W3C//DTD SVG 1.1//EN" "http://www.w3.org/Graphics/SVG/1.1/DTD/svg11.dtd">
<svg version="1.1" id="圖層_1" xmlns="http://www.w3.org/2000/svg" xmlns:xlink="http://www.w3.org/1999/xlink" x="0px" y="0px"
	 width="762px" height="273.331px" viewBox="0 0 762 273.331" enable-background="new 0 0 762 273.331" xml:space="preserve">
<polygon fill="none" stroke="#FF3B3F" stroke-width="9" stroke-miterlimit="10" points="202.387,59.535 110.041,111.951 
	16.967,59.123 109.313,6.707 "/>
<polyline fill="none" stroke="#FF3B3F" stroke-width="9" stroke-miterlimit="10" points="206.597,208.961 108.346,262.997 
	12.5,208.729 "/>
<line fill="none" stroke="#FF3B3F" stroke-width="9" stroke-miterlimit="10" x1="205.5" y1="59.667" x2="205.5" y2="212.667"/>
<line fill="none" stroke="#FF3B3F" stroke-width="9" stroke-miterlimit="10" x1="12.5" y1="58.667" x2="12.5" y2="211.667"/>
<line fill="none" stroke="#FF3B3F" stroke-width="9" stroke-miterlimit="10" x1="108.5" y1="111.667" x2="108.5" y2="261.667"/>
<text transform="matrix(0.6101 0.3577 -0.0013 1 30.0679 200.2612)" fill="#FF3B3F" stroke="#FF3B3F" stroke-width="8" stroke-miterlimit="10" font-family="'AdobeMingStd-Light-B5pc-H'" font-size="152.3271">B</text>
<text transform="matrix(0.7299 -0.3837 0.0167 0.9999 125.9653 227.3667)" fill="#FF3B3F" stroke="#FF3B3F" stroke-width="8" stroke-miterlimit="10" font-family="'AdobeMingStd-Light-B5pc-H'" font-size="137.6035">F</text>
<g>
	<path fill="#FF3B3F" stroke="#FF3B3F" stroke-width="6" stroke-miterlimit="10" d="M263.09,198.668V70.941h30.672
		c9.167,0,16.463,2.703,21.881,8.106c5.416,5.405,8.127,12.56,8.127,21.467c0,7.422-1.802,13.851-5.401,19.282
		c-3.605,5.435-8.634,9.279-15.087,11.536v0.356c8.08,0.831,14.446,3.994,19.106,9.486c4.666,5.493,6.999,12.485,6.999,20.976
		c0,10.749-3.174,19.524-9.519,26.322c-6.336,6.798-14.825,10.197-25.455,10.197H263.09z M271.144,79.047v49.435h16.273
		c8.461,0,15.243-2.375,20.339-7.127c5.097-4.748,7.646-11.191,7.646-19.327c0-15.321-8.271-22.981-24.813-22.981H271.144z
		 M271.144,136.499v54.153h21.642c9.168,0,16.177-2.405,21.031-7.211c4.846-4.813,7.271-11.641,7.271-20.491
		c0-17.633-10.92-26.451-32.777-26.451H271.144z"/>
	<path fill="#FF3B3F" stroke="#FF3B3F" stroke-width="6" stroke-miterlimit="10" d="M433.2,147.633
		c0,35.512-13.83,53.266-41.491,53.266c-26.31,0-39.463-17.103-39.463-51.308v-78.65h7.974v77.403
		c0,29.629,11.011,44.445,33.032,44.445c21.317,0,31.977-14.397,31.977-43.199v-78.65h7.972V147.633z"/>
	<path fill="#FF3B3F" stroke="#FF3B3F" stroke-width="6" stroke-miterlimit="10" d="M495.361,150.125v48.543h-7.974v-48.364
		L451.67,70.941h9.03l27.176,61.548c0.977,2.138,2.196,5.286,3.662,9.442h0.325c0.759-2.196,2.085-5.283,3.985-9.263l28.477-61.727
		h8.705L495.361,150.125z"/>
	<path fill="#FF3B3F" stroke="#FF3B3F" stroke-width="6" stroke-miterlimit="10" d="M559.718,79.047v52.108h43.118v8.015h-43.118
		v59.499h-8.056V70.941h54.512v8.106H559.718z"/>
	<path fill="#FF3B3F" stroke="#FF3B3F" stroke-width="6" stroke-miterlimit="10" d="M629.118,198.668V70.941h8.056v127.728H629.118z
		"/>
	<path fill="#FF3B3F" stroke="#FF3B3F" stroke-width="6" stroke-miterlimit="10" d="M751.481,189.764
		c-12.042,7.424-24.437,11.135-37.182,11.135c-15.893,0-28.75-5.91-38.564-17.729c-9.818-11.816-14.728-27.313-14.728-46.494
		c0-19.358,5.29-35.509,15.868-48.455c10.576-12.945,24.704-19.418,42.387-19.418c10.253,0,20.205,2.257,29.86,6.77v9.62
		c-10.577-5.582-20.909-8.373-30.996-8.373c-14.701,0-26.513,5.493-35.434,16.478c-8.924,10.985-13.383,25-13.383,42.042
		c0,17.933,4.188,31.989,12.569,42.175c8.379,10.183,19.673,15.274,33.886,15.274c10.521,0,19.741-2.492,27.663-7.481v-42.129
		h-27.503v-8.017h35.556V189.764z"/>
</g>
</svg>
