<?xml version="1.0" encoding="utf-8"?>
<!-- Generator: Adobe Illustrator 16.0.0, SVG Export Plug-In . SVG Version: 6.00 Build 0)  -->
<!DOCTYPE svg PUBLIC "-//W3C//DTD SVG 1.1//EN" "http://www.w3.org/Graphics/SVG/1.1/DTD/svg11.dtd">
<svg version="1.1" id="圖層_1" xmlns="http://www.w3.org/2000/svg" xmlns:xlink="http://www.w3.org/1999/xlink" x="0px" y="0px"
	 width="781px" height="277.166px" viewBox="-5.5 -3.834 781 277.166" enable-background="new -5.5 -3.834 781 277.166"
	 xml:space="preserve">
<polygon fill="none" stroke="#FF3B3F" stroke-width="12" stroke-miterlimit="10" points="200.153,59.535 108.936,111.951 17,59.123 
	108.217,6.707 "/>
<polyline fill="none" stroke="#FF3B3F" stroke-width="12" stroke-miterlimit="10" points="208.583,207.828 107.421,261.865 
	8.736,207.596 "/>
<line fill="none" stroke="#FF3B3F" stroke-width="12" stroke-miterlimit="10" x1="205.5" y1="59.667" x2="205.5" y2="212.667"/>
<line fill="none" stroke="#FF3B3F" stroke-width="12" stroke-miterlimit="10" x1="11.365" y1="59.802" x2="11.365" y2="212.8"/>
<line fill="none" stroke="#FF3B3F" stroke-width="12" stroke-miterlimit="10" x1="108.5" y1="111.667" x2="108.5" y2="261.667"/>
<text transform="matrix(0.6101 0.3577 -0.0013 1 30.0684 200.2612)" fill="#FF3B3F" font-family="'AdobeMingStd-Light-B5pc-H'" font-size="152.3271">B</text>
<text transform="matrix(0.6101 0.3577 -0.0013 1 30.0684 200.2612)" fill="none" stroke="#FF3B3F" stroke-width="12" stroke-miterlimit="10" font-family="'AdobeMingStd-Light-B5pc-H'" font-size="152.3271">B</text>
<text transform="matrix(0.7299 -0.3837 0.0167 0.9999 125.9648 227.3667)" fill="#FF3B3F" font-family="'AdobeMingStd-Light-B5pc-H'" font-size="137.6089">F</text>
<text transform="matrix(0.7299 -0.3837 0.0167 0.9999 125.9648 227.3667)" fill="none" stroke="#FF3B3F" stroke-width="12" stroke-miterlimit="10" font-family="'AdobeMingStd-Light-B5pc-H'" font-size="137.6089">F</text>
<path fill="#FF3B3F" stroke="#FF3B3F" stroke-width="13" stroke-linecap="square" stroke-linejoin="round" stroke-miterlimit="10" d="
	M263.09,186.764V59.038h30.672c9.167,0,16.463,2.703,21.881,8.106c5.416,5.405,8.127,12.56,8.127,21.467
	c0,7.422-1.802,13.851-5.401,19.282c-3.605,5.435-8.634,9.279-15.087,11.536v0.356c8.08,0.831,14.446,3.994,19.106,9.485
	c4.666,5.494,6.999,12.486,6.999,20.977c0,10.749-3.174,19.523-9.519,26.322c-6.336,6.798-14.825,10.197-25.455,10.197H263.09
	V186.764z M271.144,67.144v49.435h16.273c8.461,0,15.243-2.375,20.339-7.127c5.097-4.748,7.646-11.191,7.646-19.327
	c0-15.321-8.271-22.981-24.813-22.981H271.144z M271.144,124.596v54.153h21.642c9.168,0,16.177-2.404,21.031-7.211
	c4.846-4.813,7.271-11.641,7.271-20.49c0-17.634-10.92-26.452-32.777-26.452H271.144z"/>
<path fill="#FF3B3F" stroke="#FF3B3F" stroke-width="13" stroke-linecap="square" stroke-linejoin="round" stroke-miterlimit="10" d="
	M433.2,135.729c0,35.513-13.83,53.267-41.491,53.267c-26.31,0-39.463-17.103-39.463-51.308v-78.65h7.974v77.403
	c0,29.629,11.011,44.444,33.032,44.444c21.316,0,31.978-14.396,31.978-43.199V59.037h7.972L433.2,135.729L433.2,135.729z"/>
<path fill="#FF3B3F" stroke="#FF3B3F" stroke-width="13" stroke-linecap="square" stroke-linejoin="round" stroke-miterlimit="10" d="
	M495.361,138.221v48.543h-7.975v-48.363L451.67,59.038h9.03l27.176,61.548c0.977,2.138,2.196,5.286,3.662,9.442h0.325
	c0.759-2.196,2.085-5.283,3.984-9.263l28.478-61.727h8.705L495.361,138.221z"/>
<path fill="#FF3B3F" stroke="#FF3B3F" stroke-width="13" stroke-linecap="square" stroke-linejoin="round" stroke-miterlimit="10" d="
	M559.718,67.144v52.108h43.118v8.015h-43.118v59.5h-8.056V59.038h54.512v8.106H559.718z"/>
<path fill="#FF3B3F" stroke="#FF3B3F" stroke-width="13" stroke-linecap="square" stroke-linejoin="round" stroke-miterlimit="10" d="
	M629.118,186.764V59.038h8.056v127.729h-8.056V186.764z"/>
<path fill="#FF3B3F" stroke="#FF3B3F" stroke-width="13" stroke-linecap="square" stroke-linejoin="round" stroke-miterlimit="10" d="
	M751.481,177.861c-12.042,7.424-24.438,11.135-37.183,11.135c-15.893,0-28.75-5.91-38.563-17.729
	c-9.818-11.815-14.729-27.313-14.729-46.494c0-19.358,5.29-35.509,15.868-48.455C687.451,63.373,701.579,56.9,719.262,56.9
	c10.253,0,20.205,2.257,29.86,6.77v9.62c-10.577-5.582-20.909-8.373-30.996-8.373c-14.701,0-26.513,5.493-35.434,16.478
	c-8.925,10.985-13.384,25-13.384,42.042c0,17.933,4.188,31.99,12.569,42.175c8.379,10.183,19.673,15.273,33.886,15.273
	c10.521,0,19.741-2.492,27.663-7.48v-42.129h-27.503v-8.017h35.556v54.602H751.481z"/>
<line fill="none" stroke="#FF3B3F" stroke-width="12" stroke-miterlimit="10" x1="251.555" y1="214.863" x2="761.58" y2="214.863"/>
</svg>
